#!OML:ASF E:\emotionWalksFemale\Project 1\Capture day 1\Session 1\Female1.ASF
:FULLY-SPECIFIED
:DEGREES
804
root 9.34366 15.3809 -36.9197 178.479 -3.58458 -179.905
lowerback 6.86303 1.9902 0.501329
upperback -4.60235 2.59899 -0.452984
thorax -8.66989 1.18242 -1.12393
lowerneck -4.81509 -4.30129 -7.33694
upperneck 4.00466 -5.41746 3.40661
head 2.45829 -2.72563 2.18399
rclavicle 2.95692e-015 5.36719e-015
rhumerus -45.5479 17.8645 -95.3952
rradius 33.6117
rwrist 13.4634
rhand 2.84633 -55.4154
rfingers 7.12502
rthumb 28.3137 -83.2951
lclavicle 2.95692e-015 5.36719e-015
lhumerus -48.3011 -2.29438 76.6774
lradius 36.1335
lwrist -11.8392
lhand -8.21943 -32.9983
lfingers 7.12502
lthumb 17.6977 -3.78369
rfemur -3.92186 21.515 26.8624
rtibia 26.1753
rfoot -23.5845 -33.4223
rtoes -1.69248
lfemur -8.19904 -24.1979 -27.28
ltibia 30.1974
lfoot -24.5177 21.054
ltoes -12.7573
805
root 9.34991 15.3822 -36.9155 178.468 -3.75523 -179.696
lowerback 6.99424 1.97682 0.632634
upperback -4.67462 2.60138 -0.366509
thorax -8.82386 1.17575 -1.11344
lowerneck -4.35408 -4.38651 -8.07521
upperneck 3.50509 -5.55752 4.35288
head 2.28447 -2.78098 2.64132
rclavicle 2.70844e-015 6.16232e-015
rhumerus -46.1231 18.1107 -95.7594
rradius 33.6323
rwrist 12.8974
rhand 2.53064 -55.378
rfingers 7.12502
rthumb 28.012 -83.3074
lclavicle 2.70844e-015 6.16232e-015
lhumerus -48.3373 -2.10286 76.5244
lradius 35.8669
lwrist -12.4247
lhand -8.649 -33.1995
lfingers 7.12502
lthumb 17.2843 -3.94811
rfemur -3.77641 21.4791 27.1783
rtibia 26.0529
rfoot -22.2222 -33.8125
rtoes -4.57589
lfemur -8.3404 -24.1321 -26.9721
ltibia 30.3187
lfoot -24.5922 20.7822
ltoes -12.1235
806
root 9.34643 15.3735 -36.9113 178.198 -3.9941 -179.201
lowerback 7.26031 1.91448 1.23871
upperback -4.64074 2.60443 -0.226879
thorax -8.92333 1.14601 -1.31539
lowerneck -4.49061 -4.42337 -7.78787
upperneck 3.91883 -5.59318 3.75485
head 2.41322 -2.8134 2.38092
rclavicle 7.45443e-017 -4.67144e-015
rhumerus -46.6633 18.3039 -96.0956
rradius 33.6034
rwrist 12.371
rhand 2.25925 -55.5717
rfingers 7.12502
rthumb 27.7525 -83.5432
lclavicle 7.45443e-017 -4.67144e-015
lhumerus -48.3181 -1.8546 76.3806
lradius 35.358
lwrist -13.4123
lhand -9.75477 -33.8679
lfingers 7.12502
lthumb 16.2198 -4.52637
rfemur -3.34029 21.2426 27.8384
rtibia 25.8789
rfoot -23.5482 -33.5997
rtoes -1.59463
lfemur -8.16212 -24.2078 -26.5505
ltibia 30.4854
lfoot -24.8084 20.5142
ltoes -11.4341
807
root 9.34724 15.3727 -36.9131 178.243 -4.12052 -179.305
lowerback 6.97883 1.91797 1.12069
upperback -4.54299 2.59225 -0.243579
thorax -8.65594 1.15213 -1.2517
lowerneck -4.56682 -4.45568 -7.67574
upperneck 3.98287 -5.62997 3.58236
head 2.43913 -2.83455 2.29917
rclavicle 2.33572e-015 -3.97569e-016
rhumerus -46.9338 18.1684 -96.1645
rradius 33.679
rwrist 12.3239
rhand 1.52681 -55.5111
rfingers 7.12502
rthumb 27.052 -83.5934
lclavicle 2.33572e-015 -3.97569e-016
lhumerus -48.1484 -1.51659 76.2012
lradius 34.7806
lwrist -14.4838
lhand -11.1221 -34.7121
lfingers 7.12502
lthumb 14.9029 -5.26819
rfemur -3.26647 21.3375 27.7402
rtibia 25.6564
rfoot -22.9584 -34.0278
rtoes -3.00805
lfemur -8.2853 -24.3306 -26.6455
ltibia 30.6662
lfoot -24.9612 20.4402
ltoes -11.4132
808
root 9.34957 15.3757 -36.9151 178.24 -4.1715 -179.242
lowerback 6.90833 1.91829 1.11801
upperback -4.54577 2.59385 -0.20206
thorax -8.61957 1.15464 -1.20378
lowerneck -4.38543 -4.43156 -7.72824
upperneck 3.90893 -5.61293 3.67972
head 2.38609 -2.82518 2.34559
rclavicle 1.95306e-014 -1.78906e-015
rhumerus -47.3417 18.0308 -96.2954
rradius 33.7421
rwrist 12.5305
rhand 2.03073 -55.4578
rfingers 7.12502
rthumb 27.534 -83.4643
lclavicle 1.95306e-014 -1.78906e-015
lhumerus -48.1767 -1.24154 76.0955
lradius 34.5787
lwrist -14.8029
lhand -11.3233 -34.6321
lfingers 7.12502
lthumb 14.709 -5.17393
rfemur -3.20884 21.402 27.8298
rtibia 25.5235
rfoot -22.2695 -34.3713
rtoes -4.04336
lfemur -8.34032 -24.4197 -26.577
ltibia 30.7732
lfoot -24.9309 20.5642
ltoes -12.3094
809
root 9.35143 15.373 -36.9138 178.086 -4.2366 -178.969
lowerback 7.09682 1.89867 1.34301
upperback -4.57314 2.60398 -0.094522
thorax -8.75521 1.1477 -1.2256
lowerneck -3.85862 -4.33906 -7.92304
upperneck 3.51984 -5.53034 4.02847
head 2.17679 -2.7785 2.51256
rclavicle 2.17918e-014 -1.59028e-015
rhumerus -47.7899 17.9959 -96.4939
rradius 33.664
rwrist 12.6923
rhand 2.84716 -55.4079
rfingers 7.12502
rthumb 28.3145 -83.2875
lclavicle 2.17918e-014 -1.59028e-015
lhumerus -48.2916 -1.08314 76.0883
lradius 34.6161
lwrist -14.7725
lhand -10.8629 -34.0796
lfingers 7.12502
lthumb 15.1526 -4.6543
rfemur -3.09082 21.5209 28.1958
rtibia 25.5197
rfoot -22.8071 -34.5139
rtoes -2.56635
lfemur -8.19494 -24.4217 -26.3357
ltibia 30.7777
lfoot -24.9905 20.4939
ltoes -12.3766
810
root 9.35114 15.3728 -36.9087 178.207 -4.38216 -179.149
lowerback 7.01967 1.88399 1.17366
upperback -4.61701 2.55787 -0.145183
thorax -8.76369 1.1322 -1.17567
lowerneck -4.15981 -4.50718 -7.64832
upperneck 4.00828 -5.73479 3.56877
head 2.37729 -2.8914 2.29183
rclavicle 2.04997e-014 3.8763e-015
rhumerus -48.0901 17.9082 -96.638
rradius 33.5687
rwrist 12.6452
rhand 2.2096 -55.2279
rfingers 7.12502
rthumb 27.705 -83.207
lclavicle 2.04997e-014 3.8763e-015
lhumerus -48.3525 -0.875275 76.023
lradius 34.6114
lwrist -14.9951
lhand -10.8163 -34.1224
lfingers 7.12502
lthumb 15.1975 -4.70054
rfemur -3.31425 21.6519 27.92
rtibia 25.5343
rfoot -23.9265 -34.5827
rtoes -0.625876
lfemur -8.33583 -24.4242 -26.4721
ltibia 30.7648
lfoot -25.1164 20.3231
ltoes -11.6448
